<?xml version="1.0" encoding="utf-8"?>
<!-- Generator: Adobe Illustrator 22.1.0, SVG Export Plug-In . SVG Version: 6.00 Build 0)  -->
<svg version="1.1" id="Layer_1" xmlns="http://www.w3.org/2000/svg" xmlns:xlink="http://www.w3.org/1999/xlink" x="0px" y="0px"
	 viewBox="0 0 269.7 70.2" style="enable-background:new 0 0 269.7 70.2;" xml:space="preserve">
<style type="text/css">
	.st0{clip-path:url(#SVGID_2_);}
	.st1{clip-path:url(#SVGID_4_);fill:#F9AE3B;}
	.st2{clip-path:url(#SVGID_6_);fill:#231F20;}
	.st3{clip-path:url(#SVGID_8_);fill:none;stroke:#1D1D1B;stroke-width:0.75;stroke-miterlimit:10;}
	.st4{clip-path:url(#SVGID_10_);}
	.st5{clip-path:url(#SVGID_12_);}
	.st6{clip-path:url(#SVGID_16_);fill:#77C1C7;}
	.st7{clip-path:url(#SVGID_18_);}
	.st8{clip-path:url(#SVGID_20_);fill:#50948D;}
	.st9{clip-path:url(#SVGID_24_);fill:#231F20;}
	.st10{clip-path:url(#SVGID_26_);}
	.st11{clip-path:url(#SVGID_28_);enable-background:new    ;}
	.st12{clip-path:url(#SVGID_30_);}
	.st13{clip-path:url(#SVGID_32_);fill:#77C1C7;}
	.st14{clip-path:url(#SVGID_32_);fill:#F9AE3B;}
	.st15{clip-path:url(#SVGID_34_);}
	.st16{opacity:0.7;clip-path:url(#SVGID_36_);enable-background:new    ;}
	.st17{clip-path:url(#SVGID_38_);}
	.st18{clip-path:url(#SVGID_40_);fill:#77C1C7;}
	.st19{clip-path:url(#SVGID_42_);enable-background:new    ;}
	.st20{clip-path:url(#SVGID_44_);}
	.st21{clip-path:url(#SVGID_46_);fill:#77C1C7;}
	.st22{clip-path:url(#SVGID_42_);fill:#77C1C7;}
	.st23{clip-path:url(#SVGID_42_);fill:#F9AE3B;}
	.st24{opacity:0.5;clip-path:url(#SVGID_48_);enable-background:new    ;}
	.st25{clip-path:url(#SVGID_50_);}
	.st26{clip-path:url(#SVGID_52_);fill:#77C1C7;}
	.st27{opacity:0.5;clip-path:url(#SVGID_54_);enable-background:new    ;}
	.st28{clip-path:url(#SVGID_56_);}
	.st29{clip-path:url(#SVGID_58_);fill:#77C1C7;}
	.st30{clip-path:url(#SVGID_54_);fill:#50948D;}
	.st31{clip-path:url(#SVGID_54_);fill:#77C1C7;}
	.st32{clip-path:url(#SVGID_60_);enable-background:new    ;}
	.st33{clip-path:url(#SVGID_62_);}
	.st34{clip-path:url(#SVGID_64_);fill:#77C1C7;}
	.st35{clip-path:url(#SVGID_60_);fill:#77C1C7;}
	.st36{clip-path:url(#SVGID_60_);fill:#F9AE3B;}
	.st37{clip-path:url(#SVGID_36_);fill:#F9AE3B;}
	.st38{clip-path:url(#SVGID_66_);fill:#231F20;}
	.st39{fill:#77C1C7;}
	.st40{fill:#F5B557;}
	.st41{fill:#F9AE3B;}
	.st42{clip-path:url(#SVGID_70_);fill:#231F20;}
	.st43{clip-path:url(#SVGID_72_);fill:#231F20;}
	.st44{fill:#E3E3E3;}
	.st45{clip-path:url(#SVGID_74_);}
	.st46{clip-path:url(#SVGID_78_);}
	.st47{clip-path:url(#SVGID_82_);fill:#231F20;}
	.st48{clip-path:url(#SVGID_84_);}
	.st49{clip-path:url(#SVGID_92_);}
	.st50{clip-path:url(#SVGID_94_);fill:#F29CA9;}
	.st51{clip-path:url(#SVGID_94_);fill:#F9AE3B;}
	.st52{clip-path:url(#SVGID_96_);fill:#231F20;}
	.st53{clip-path:url(#SVGID_98_);fill:#C8E8FB;}
	.st54{clip-path:url(#SVGID_98_);fill:#EFED9B;}
	.st55{clip-path:url(#SVGID_98_);fill:#BFE0D7;}
	.st56{clip-path:url(#SVGID_98_);fill:#FDD390;}
	.st57{clip-path:url(#SVGID_100_);}
	.st58{clip-path:url(#SVGID_102_);fill:#F9AE3B;}
	.st59{clip-path:url(#SVGID_104_);fill:#231F20;}
	.st60{clip-path:url(#SVGID_106_);}
	.st61{clip-path:url(#SVGID_110_);}
	.st62{clip-path:url(#SVGID_116_);}
	.st63{clip-path:url(#SVGID_118_);fill:#77C1C7;}
	.st64{clip-path:url(#SVGID_120_);}
	.st65{clip-path:url(#SVGID_124_);}
	.st66{clip-path:url(#SVGID_126_);fill:#AA2D93;}
	.st67{clip-path:url(#SVGID_128_);}
	.st68{clip-path:url(#SVGID_130_);fill:#77C1C7;}
	.st69{clip-path:url(#SVGID_130_);fill:#F9AE3B;}
	.st70{clip-path:url(#SVGID_132_);}
	.st71{clip-path:url(#SVGID_136_);fill:#F9AE3B;}
	.st72{clip-path:url(#SVGID_138_);fill:#231F20;}
	.st73{clip-path:url(#SVGID_140_);}
	.st74{clip-path:url(#SVGID_142_);fill:#F9AE3B;}
	.st75{clip-path:url(#SVGID_142_);fill:#2A3D48;}
	.st76{clip-path:url(#SVGID_144_);}
	.st77{clip-path:url(#SVGID_146_);fill:#2A3D48;}
	.st78{clip-path:url(#SVGID_150_);}
	.st79{clip-path:url(#SVGID_154_);}
	.st80{clip-path:url(#SVGID_160_);}
	.st81{clip-path:url(#SVGID_168_);}
	.st82{clip-path:url(#SVGID_174_);}
	.st83{clip-path:url(#SVGID_180_);}
	.st84{clip-path:url(#SVGID_186_);}
	.st85{clip-path:url(#SVGID_192_);}
	.st86{clip-path:url(#SVGID_198_);}
	.st87{clip-path:url(#SVGID_204_);}
	.st88{clip-path:url(#SVGID_210_);}
	.st89{clip-path:url(#SVGID_214_);fill:#F9AE3B;}
	.st90{clip-path:url(#SVGID_216_);fill:#231F20;}
	.st91{clip-path:url(#SVGID_218_);}
	.st92{clip-path:url(#SVGID_220_);fill:#F9AE3B;}
	.st93{clip-path:url(#SVGID_222_);fill:#231F20;}
	.st94{clip-path:url(#SVGID_224_);}
	.st95{clip-path:url(#SVGID_232_);}
	.st96{clip-path:url(#SVGID_236_);}
	.st97{fill:#F7FDFF;}
	.st98{fill:#2B3B4E;}
	.st99{fill:#F7FDFF;stroke:#77C1C7;stroke-width:3;stroke-miterlimit:10;}
	.st100{fill:none;stroke:#2B3B4E;stroke-width:3;stroke-miterlimit:10;}
	.st101{fill:none;stroke:#F9AE3B;stroke-width:3;stroke-miterlimit:10;}
	.st102{fill:none;stroke:#FFFFFF;stroke-width:0.75;stroke-miterlimit:10;}
	.st103{fill:#77C1C7;stroke:#FFFFFF;stroke-width:0.75;stroke-miterlimit:10;}
	.st104{fill:#FFFFFF;}
	.st105{fill:#F9AE3B;stroke:#FFFFFF;stroke-width:0.75;stroke-miterlimit:10;}
	.st106{enable-background:new    ;}
	.st107{clip-path:url(#SVGID_242_);}
	.st108{clip-path:url(#SVGID_244_);fill:#FFFFFF;}
	.st109{fill:#2A3D48;}
	.st110{fill:#F3F3F3;}
	.st111{fill:#CD2321;}
	.st112{fill:#EEB84D;}
	.st113{fill:#60B13D;}
	.st114{fill:#4A6675;}
	.st115{fill:#F7AD3B;}
	.st116{clip-path:url(#SVGID_248_);}
	.st117{clip-path:url(#SVGID_250_);fill:#221E20;}
	.st118{clip-path:url(#SVGID_252_);}
	.st119{clip-path:url(#SVGID_254_);fill:#221E20;}
	.st120{clip-path:url(#SVGID_256_);}
	.st121{clip-path:url(#SVGID_258_);fill:#221E20;}
	.st122{clip-path:url(#SVGID_260_);fill:#50948D;}
	.st123{clip-path:url(#SVGID_260_);fill:#77C1C7;}
	.st124{clip-path:url(#SVGID_262_);fill:#231F20;}
	.st125{clip-path:url(#SVGID_264_);fill:#F9AE3B;}
	.st126{clip-path:url(#SVGID_266_);fill:#F9AE3B;}
	.st127{clip-path:url(#SVGID_268_);fill:#231F20;}
	.st128{clip-path:url(#SVGID_270_);fill:#2A3D48;}
	.st129{clip-path:url(#SVGID_272_);}
	.st130{clip-path:url(#SVGID_274_);fill:#2A3D48;}
	.st131{clip-path:url(#SVGID_274_);fill:#F4F4F4;}
	.st132{clip-path:url(#SVGID_274_);fill:#CE2121;}
	.st133{clip-path:url(#SVGID_274_);fill:#EFB94D;}
	.st134{clip-path:url(#SVGID_274_);fill:#5FB23D;}
	.st135{clip-path:url(#SVGID_274_);fill:#496675;}
	.st136{clip-path:url(#SVGID_276_);}
	.st137{clip-path:url(#SVGID_282_);}
	.st138{clip-path:url(#SVGID_288_);}
	.st139{clip-path:url(#SVGID_292_);}
	.st140{clip-path:url(#SVGID_294_);fill:none;stroke:#919190;stroke-width:0.533;stroke-miterlimit:10;}
	.st141{clip-path:url(#SVGID_296_);fill:none;stroke:#919190;stroke-width:0.533;stroke-miterlimit:10;}
	.st142{fill:none;stroke:#F9AE3B;stroke-width:5.2301;stroke-miterlimit:10;}
	.st143{stroke:#000000;stroke-width:0.8895;stroke-miterlimit:10;}
</style>
<path class="st142" d="M25.4,37.3l2.8-7c2.3-4.7,9-5,11.6-0.4l16.1,27.2H16.7c-4.6,0-7.7-4.7-5.8-8.9l15.7-35.6
	c2.5-5.7,10.6-6,13.5-0.4L62.4,48l-31.3-1.5C26.4,46.5,23.3,41.6,25.4,37.3z"/>
<g>
	<path class="st143" d="M72.6,30.8c1.3,0.8,3.2,1.5,5.3,1.5c3,0,4.8-1.6,4.8-3.9c0-2.1-1.2-3.3-4.3-4.5c-3.7-1.3-6-3.2-6-6.5
		c0-3.5,2.9-6.2,7.4-6.2c2.3,0,4,0.5,5,1.1l-0.8,2.4c-0.7-0.4-2.3-1.1-4.3-1.1c-3.1,0-4.3,1.9-4.3,3.4c0,2.1,1.4,3.2,4.5,4.4
		c3.9,1.5,5.8,3.3,5.8,6.7c0,3.5-2.6,6.6-8,6.6c-2.2,0-4.6-0.6-5.8-1.5L72.6,30.8z"/>
	<path class="st143" d="M101.5,23.7h-8.9v8.2h9.9v2.5H89.7V11.6H102v2.5h-9.4v7.2h8.9V23.7z"/>
	<path class="st143" d="M118.8,34.4l-2.9-5c-1.2-1.9-1.9-3.2-2.6-4.5h-0.1c-0.6,1.3-1.3,2.5-2.5,4.5l-2.7,5h-3.4l7-11.5l-6.7-11.3
		h3.4l3,5.3c0.8,1.5,1.5,2.6,2.1,3.9h0.1c0.6-1.4,1.2-2.4,2.1-3.9l3.1-5.3h3.4l-6.9,11.1l7.1,11.7H118.8z"/>
	<path class="st143" d="M130.2,14.1h-6.9v-2.5h16.9v2.5h-7v20.3h-3V14.1z"/>
	<path class="st143" d="M143.8,27.2l-2.4,7.2h-3l7.7-22.8h3.5l7.8,22.8h-3.1l-2.4-7.2H143.8z M151.3,24.9l-2.2-6.6
		c-0.5-1.5-0.8-2.8-1.2-4.2h-0.1c-0.3,1.4-0.7,2.7-1.1,4.1l-2.2,6.6H151.3z"/>
</g>
<g>
	<path d="M90.6,61.9c-1.3,0.5-3.9,1.3-7,1.3c-3.4,0-6.3-0.9-8.5-3c-2-1.9-3.2-4.9-3.2-8.5c0-6.8,4.7-11.8,12.3-11.8
		c2.6,0,4.7,0.6,5.7,1l-0.7,2.4c-1.2-0.5-2.7-1-5-1c-5.5,0-9.2,3.4-9.2,9.2c0,5.8,3.5,9.2,8.8,9.2c1.9,0,3.2-0.3,3.9-0.6v-6.8h-4.6
		v-2.4h7.5V61.9z"/>
	<path d="M106.9,52.2H98v8.2h9.9v2.5H95.1V40.1h12.3v2.5H98v7.2h8.9V52.2z"/>
	<path d="M111.7,62.9V40.1h3.2l7.3,11.5c1.7,2.7,3,5.1,4.1,7.4l0.1,0c-0.3-3-0.3-5.8-0.3-9.4v-9.5h2.8v22.8h-3l-7.2-11.6
		c-1.6-2.5-3.1-5.1-4.3-7.6l-0.1,0c0.2,2.9,0.2,5.6,0.2,9.4v9.7H111.7z"/>
	<path d="M145.7,52.2h-8.9v8.2h9.9v2.5h-12.8V40.1h12.3v2.5h-9.4v7.2h8.9V52.2z"/>
	<path d="M150.6,40.4c1.5-0.3,3.6-0.5,5.6-0.5c3.1,0,5.2,0.6,6.6,1.9c1.1,1,1.8,2.6,1.8,4.3c0,3-1.9,5-4.3,5.8v0.1
		c1.8,0.6,2.8,2.2,3.3,4.6c0.7,3.2,1.3,5.4,1.8,6.3h-3c-0.4-0.6-0.9-2.6-1.5-5.4c-0.7-3.1-1.9-4.3-4.6-4.4h-2.8v9.9h-2.9V40.4z
		 M153.5,50.8h3c3.1,0,5.1-1.7,5.1-4.3c0-2.9-2.1-4.2-5.2-4.3c-1.4,0-2.4,0.1-2.9,0.3V50.8z"/>
	<path d="M172.6,55.7l-2.4,7.2h-3l7.7-22.8h3.5l7.8,22.8h-3.1l-2.4-7.2H172.6z M180.1,53.4l-2.2-6.6c-0.5-1.5-0.8-2.8-1.2-4.2h-0.1
		c-0.3,1.4-0.7,2.7-1.1,4.1l-2.2,6.6H180.1z"/>
	<path d="M205,62.2c-1.1,0.5-3.2,1.1-6,1.1c-6.4,0-11.3-4.1-11.3-11.5c0-7.1,4.8-12,11.9-12c2.8,0,4.6,0.6,5.4,1l-0.7,2.4
		c-1.1-0.5-2.7-0.9-4.6-0.9c-5.3,0-8.9,3.4-8.9,9.4c0,5.6,3.2,9.2,8.8,9.2c1.8,0,3.6-0.4,4.8-0.9L205,62.2z"/>
	<path d="M211.6,40.1v22.8h-2.9V40.1H211.6z"/>
	<path d="M236.3,51.3c0,7.8-4.8,12-10.6,12c-6,0-10.2-4.7-10.2-11.6c0-7.2,4.5-12,10.6-12C232.2,39.7,236.3,44.5,236.3,51.3z
		 M218.6,51.6c0,4.9,2.6,9.2,7.3,9.2c4.7,0,7.3-4.3,7.3-9.5c0-4.5-2.4-9.3-7.3-9.3C221,42.1,218.6,46.6,218.6,51.6z M230.8,34.9
		l-4.3,3.9H224l3.1-3.9H230.8z"/>
	<path d="M240.1,62.9V40.1h3.2l7.3,11.5c1.7,2.7,3,5.1,4.1,7.4l0.1,0c-0.3-3-0.3-5.8-0.3-9.4v-9.5h2.8v22.8h-3L247,51.3
		c-1.6-2.5-3.1-5.1-4.3-7.6l-0.1,0c0.2,2.9,0.2,5.6,0.2,9.4v9.7H240.1z"/>
</g>
</svg>
